#N canvas 592 210 450 497 10;
#X declare -lib mrpeach;
#X obj 64 36 import mrpeach;
#X obj 192 -12 udpreceive 9000;
#N canvas 559 357 450 300 reverbwrapper 0;
#X obj 71 31 inlet~;
#X obj 138 34 inlet~;
#X obj 201 443 outlet~;
#X obj 274 439 outlet~;
#X obj 198 369 freeverb~;
#X msg 282 74 roomsize \$1;
#X msg 281 135 damping \$1;
#X msg 277 205 wet \$1;
#X msg 276 226 dry \$1;
#X msg 295 295 freeze \$1;
#X msg 295 335 bypass \$1;
#X obj 295 278 tgl 15 0 empty empty empty 17 7 0 10 -262144 -1 -1 0
1;
#X obj 295 318 tgl 15 0 empty empty empty 17 7 0 10 -262144 -1 -1 0
1;
#X obj 410 156 hsl 128 15 0 1 0 0 empty empty empty -2 -8 0 10 -4032
-1 -1 2794 1;
#X floatatom 406 187 5 0 0 0 - - -;
#X obj 337 209 expr 1-$f1;
#X obj 407 53 hsl 128 15 0 1 0 0 empty empty empty -2 -8 0 10 -4034
-1 -1 11189 1;
#X obj 409 110 hsl 128 15 0 1 0 0 empty empty empty -2 -8 0 10 -260097
-1 -1 1194 1;
#X floatatom 406 130 5 0 0 0 - - -;
#X floatatom 404 78 5 0 0 0 - - -;
#X text 386 284 Freeze the reverb;
#X text 386 344 the dry signal pass through.;
#X text 385 331 Trun the reverb off and let;
#X text 456 195 Wet signal to dry signal ratio;
#X text 456 211 (0 : all dry \, 1 : all wet);
#X text 456 76 Roomize;
#X msg 419 23 0.881;
#X msg 451 93 0.094;
#X text 457 130 0 level;
#X msg 441 132 0.22;
#X obj 488 20 loadbang;
#X connect 0 0 4 0;
#X connect 1 0 4 1;
#X connect 4 0 2 0;
#X connect 4 1 3 0;
#X connect 5 0 4 0;
#X connect 6 0 4 0;
#X connect 7 0 4 0;
#X connect 8 0 4 0;
#X connect 9 0 4 0;
#X connect 10 0 4 0;
#X connect 11 0 9 0;
#X connect 12 0 10 0;
#X connect 13 0 14 0;
#X connect 13 0 7 0;
#X connect 13 0 15 0;
#X connect 15 0 8 0;
#X connect 16 0 5 0;
#X connect 16 0 19 0;
#X connect 17 0 6 0;
#X connect 17 0 18 0;
#X connect 26 0 16 0;
#X connect 27 0 17 0;
#X connect 29 0 13 0;
#X connect 30 0 26 0;
#X connect 30 0 27 0;
#X connect 30 0 29 0;
#X restore 223 275 pd reverbwrapper;
#X obj 224 243 +~;
#X obj 223 305 dac~;
#X obj 302 172 pentatonic;
#X obj 192 26 unpackOSC;
#X obj 192 64 routeOSC /1 /2 /3 /4 /5;
#X obj 226 172 pentatonic;
#X obj 161 173 pentatonic;
#X obj 197 102 bng 15 250 50 0 empty empty empty 17 7 0 10 -262144
-1 -1;
#X obj 234 103 bng 15 250 50 0 empty empty empty 17 7 0 10 -262144
-1 -1;
#X obj 273 103 bng 15 250 50 0 empty empty empty 17 7 0 10 -262144
-1 -1;
#X obj 299 104 bng 15 250 50 0 empty empty empty 17 7 0 10 -262144
-1 -1;
#X obj 319 103 bng 15 250 50 0 empty empty empty 17 7 0 10 -262144
-1 -1;
#X connect 1 0 6 0;
#X connect 2 0 4 0;
#X connect 2 1 4 1;
#X connect 3 0 2 0;
#X connect 3 0 2 1;
#X connect 5 0 3 0;
#X connect 6 0 7 0;
#X connect 7 0 9 0;
#X connect 7 0 10 0;
#X connect 7 1 8 0;
#X connect 7 1 11 0;
#X connect 7 2 5 0;
#X connect 7 2 12 0;
#X connect 7 3 13 0;
#X connect 7 4 14 0;
#X connect 8 0 3 0;
#X connect 9 0 3 0;
