#N canvas 460 180 641 367 10;
#X obj 61 35 loadbang;
#X obj 61 57 bng 15 250 50 0 empty empty empty 17 7 0 10 -262144 -1
-1;
#X obj 62 122 table pentatonic;
#X floatatom 319 99 5 0 0 0 - - -;
#X obj 319 124 tabread pentatonic;
#X floatatom 319 151 5 0 0 0 - - -;
#X floatatom 319 203 5 0 0 0 - - -;
#N canvas 915 402 450 300 sinepulse 0;
#X obj 71 34 *~;
#X obj 71 -1 osc~;
#X obj 127 18 vline~;
#X obj 71 -34 inlet;
#X obj 127 -54 inlet;
#X obj 72 61 outlet~;
#X msg 127 -23 0.8 100 \, 0 100 500;
#X connect 0 0 5 0;
#X connect 1 0 0 0;
#X connect 2 0 0 1;
#X connect 3 0 1 0;
#X connect 4 0 6 0;
#X connect 6 0 2 0;
#X restore 319 251 pd sinepulse;
#X obj 319 224 mtof;
#X floatatom 413 236 5 0 0 0 - - -;
#X msg 61 80 \; pentatonic 0 2 4 7 9 12 14 18 19 21 24;
#X obj 319 75 random 12;
#X obj 319 24 routeOSC /event /offset;
#X floatatom 445 172 5 0 0 0 - - -;
#X obj 318 278 *~ 0.1;
#X obj 318 313 outlet~;
#X obj 319 -3 inlet;
#X obj 319 49 bng 15 250 50 0 empty empty empty 17 7 0 10 -262144 -1
-1;
#X obj 319 178 +;
#X connect 0 0 1 0;
#X connect 1 0 10 0;
#X connect 3 0 4 0;
#X connect 4 0 5 0;
#X connect 5 0 18 0;
#X connect 6 0 8 0;
#X connect 7 0 14 0;
#X connect 8 0 7 0;
#X connect 8 0 9 0;
#X connect 8 0 7 1;
#X connect 11 0 3 0;
#X connect 12 0 17 0;
#X connect 12 1 13 0;
#X connect 13 0 18 1;
#X connect 14 0 15 0;
#X connect 16 0 12 0;
#X connect 17 0 11 0;
#X connect 18 0 6 0;
